<svg xmlns="http://www.w3.org/2000/svg" xmlns:xlink="http://www.w3.org/1999/xlink" width="54" height="61" viewBox="0 0 54 61">
  <defs>
    <polygon id="on-white-a" points=".14 .043 34.991 .043 34.991 61 .14 61"/>
  </defs>
  <g fill="none" fill-rule="evenodd">
    <g transform="translate(8)">
      <mask id="on-white-b" fill="#fff">
        <use xlink:href="#on-white-a"/>
      </mask>
      <path fill="#33A7D8" d="M31.4084167,0.313887537 L0.140159091,16.3447599 L0.140159091,49.6875047 L3.53445202,50.8888608 L3.53445202,59.7025463 L9.49664899,52.9987006 L31.7080379,60.8590122 C33.3153864,61.4277421 34.9911439,60.205208 34.9911439,58.4637214 L34.9911439,2.57993798 C34.9911439,0.695454303 33.0541237,-0.529794955 31.4084167,0.313887537" mask="url(#on-white-b)"/>
    </g>
    <path fill="#000" d="M32.1159002,17.802552 L2.83037007,14.0207522 C1.3282625,13.8266026 0,15.0194972 0,16.5620807 L0,48.4377472 C0,49.9408054 1.26378897,51.1210739 2.73339038,50.9900549 L32.0327491,48.3782763 C33.1458604,48.2790972 34,47.3293928 34,46.1908454 L34,19.9810166 C34,18.874858 33.1927339,17.9416224 32.1159002,17.802552"/>
    <path fill="#FFF" d="M22.814659,40.2179145 C22.8166022,42.0281832 21.621854,42.9315305 20.32429,43.0251712 C19.2851789,43.1004055 18.4776683,42.9099073 17.9220742,42.4493878 L17.920131,39.9686228 C18.5197133,40.5662081 19.4977003,40.9280831 20.2347237,40.88716 C20.6830855,40.8623201 20.9113296,40.5917627 20.9109762,40.3153081 C20.9100929,39.2570246 17.8632466,39.7922423 17.8611267,37.0069661 C17.8598901,35.3253642 18.8535998,34.306753 20.4592579,34.3015706 C21.2738348,34.29889 21.9610403,34.5544363 22.5245841,35.0648142 L22.5268806,37.3756319 C21.8988561,36.7964532 21.2432727,36.3941911 20.5373414,36.4083087 C20.120955,36.4165291 19.9121434,36.6951282 19.9123201,36.9737273 C19.9132034,37.9321153 22.8116557,37.2167643 22.814659,40.2179145 Z M25.9894067,34.4861715 L27.2652416,34.4797382 L27.2677148,36.5471615 L25.9917033,36.5755754 L25.9950598,39.4103524 C25.9957665,40.0969321 26.15582,40.3537294 26.5831593,40.3306766 C26.8202363,40.3181673 27.0465372,40.2130895 27.271778,40.0158006 L27.2742512,42.0594563 C26.9606806,42.3905943 26.5359912,42.5760888 25.9887001,42.6155823 C24.9393427,42.6915314 24.201436,41.8260693 24.1994927,40.1155173 L24.1957829,36.615605 L23.2725604,36.6361559 L23.2702638,34.4995743 L24.193663,34.4951067 L24.1913664,32.3440501 L25.9869335,32.3667454 L25.9894067,34.4861715 Z M3.70469473,32.7731177 L10.7965135,32.8281584 L10.7973968,35.4454531 L6.18587734,35.4983494 L6.18605399,37.3733088 L9.66094626,37.2871736 L9.6616529,39.8269108 L6.18640731,39.9777367 L6.18693729,43.8245129 L3.70469473,44 L3.70469473,32.7731177 Z M13.0047572,38.057744 C13.0902604,37.0614708 13.5050569,36.4349355 14.0746071,36.4242133 C14.5915128,36.4142059 15.0216786,37.0525356 15.0340448,37.9944829 L13.0047572,38.057744 Z M14.1700032,34.3221215 C12.0280068,34.3292697 10.8482747,36.4721059 10.849158,39.0204209 C10.850218,41.9935147 12.3866256,43.5991676 14.3434828,43.4576342 C15.4529045,43.3773962 16.1692587,43.0217759 16.727856,42.3945258 L16.7264428,40.109084 C16.1093712,40.6282183 15.4626207,40.9159313 14.8093339,40.9511359 C13.9320429,40.9979563 13.2019092,40.5881886 13.01783,39.6816247 L17.0613892,39.506495 L17.0608592,38.7691635 C17.0590926,36.3330744 16.0588465,34.3160456 14.1700032,34.3221215 Z M10.7942169,26.2347061 L10.7952769,29.3345008 C9.99023956,30.0473499 9.03504167,30.4102971 7.92332347,30.3822407 C5.22749957,30.3141545 3,27.9581247 3,24.3777958 C3.00017666,20.8235575 5.1833347,18.7352259 7.90866073,19.0270491 C8.94335539,19.1378454 9.84361218,19.5708445 10.6398165,20.3553538 L10.6408765,23.2857373 C9.83495587,22.4079447 8.95130507,21.9215132 7.93356972,21.8332335 C6.53619311,21.711715 5.37748349,22.777504 5.37766014,24.5352337 C5.3778368,26.3597987 6.57576484,27.5145821 8.02013287,27.5803451 C9.23731679,27.6355645 10.1471132,27.17022 10.7942169,26.2347061 Z M27.780734,25.9866653 C27.8475113,25.1083366 28.1753913,24.5847347 28.6262264,24.620118 C29.0358997,24.652106 29.3773825,25.2543375 29.3879821,26.0933514 L27.780734,25.9866653 Z M30.9991167,26.9470191 C30.9961135,24.7757689 30.1990258,22.899916 28.7002467,22.7585614 C27.0064355,22.5988003 26.0775598,24.4079967 26.0800331,26.6675265 C26.0802097,26.7497302 26.081623,26.830683 26.0839196,26.9107422 C26.0840962,26.9137802 26.0842729,26.9168182 26.0844495,26.9198561 C26.0939892,27.2349108 26.1217247,27.5340608 26.1669495,27.818021 C26.1688928,27.8316025 26.1715427,27.8448266 26.1738393,27.8582294 C26.1821422,27.9089812 26.1906219,27.9595544 26.2003382,28.0094127 C26.5441176,29.8264721 27.5834054,30.8638472 28.8442242,30.8958351 C29.7239885,30.9181731 30.2930087,30.6620907 30.7367774,30.1502832 L30.7339508,28.1137757 C30.2437207,28.5253303 29.7301715,28.7283378 29.2116759,28.7054637 C28.5165208,28.6747266 27.9384909,28.2506627 27.7923935,27.4300552 L31,27.6042914 L30.9991167,26.9470191 Z M22.29581,28.4583164 C21.6236206,28.429009 21.1489366,27.5383497 21.1478766,26.3728441 C21.1468167,25.2076958 21.6199108,24.3742217 22.2919235,24.4251522 C22.7676675,24.4614291 23.1146268,24.7959625 23.3555903,25.4287523 L23.3577102,27.5817747 C23.1179833,28.1857933 22.771554,28.4790461 22.29581,28.4583164 Z M23.3607135,30.549686 L25.1803063,30.5990083 L25.1686467,20.3019214 L23.3497606,20.0933741 L23.3534704,23.3684772 C22.9761257,22.5861123 22.4381976,22.1681243 21.7462223,22.1028974 C20.1827858,21.9554669 19.2143384,23.9757124 19.216105,26.2568653 C19.2180483,28.5339081 20.16141,30.6756722 21.754172,30.7160592 C22.4569235,30.7339296 22.9943217,30.3800962 23.3598302,29.6418712 L23.3607135,30.549686 Z M15.2062878,28.1312886 C14.4309293,28.0973349 13.8642056,27.17022 13.8636757,25.9366283 C13.862969,24.7400282 14.4286327,23.8441865 15.2038146,23.9031587 C15.9698102,23.9612374 16.5188679,24.9228421 16.5197512,26.0954959 C16.5204578,27.3044265 15.97246,28.1647062 15.2062878,28.1312886 Z M15.2024013,21.4860122 C13.2091522,21.2980159 11.7232692,23.1624318 11.7243292,25.8086764 C11.7253891,28.417572 13.1536811,30.4976833 15.2077011,30.5498647 C17.2002435,30.6006166 18.5126469,28.6915248 18.5108803,26.2146913 C18.5089371,23.7067633 17.1414159,21.6688261 15.2024013,21.4860122 Z"/>
  </g>
</svg>
