<svg xmlns="http://www.w3.org/2000/svg" width="448" height="160" fill="none" viewBox="0 0 448 160"><path fill="#000" fill-rule="evenodd" d="M48.68 98.957c.289 1.391.433 2.086-.002 2.575-.436.488-1.161.423-2.612.294-8.125-.723-12.668-2.212-16.222-3.684a24.124 24.124 0 0 1-13.056-13.056c-1.472-3.554-2.961-8.098-3.685-16.222-.129-1.451-.194-2.177.295-2.612.488-.435 1.184-.291 2.575-.003 16.399 3.394 29.314 16.309 32.708 32.708Zm15.704 3.169c-1.129.052-1.693.078-2.08-.243-.389-.321-.472-.908-.638-2.08-3.405-24.083-22.457-43.134-46.539-46.54-1.173-.166-1.76-.249-2.08-.637-.322-.387-.296-.952-.243-2.08.22-4.727.667-8.44 1.242-11.47.189-.996.283-1.494.677-1.796.394-.302.905-.264 1.926-.187 32.66 2.455 58.732 28.528 61.187 61.188.077 1.02.115 1.531-.187 1.925-.302.394-.8.489-1.797.678-3.028.574-6.742 1.021-11.468 1.242Zm29.277-9.997c-1.285 1.406-1.927 2.109-2.71 1.875-.781-.234-.949-1.273-1.284-3.352-5.401-33.519-31.87-59.987-65.389-65.39-2.078-.335-3.118-.502-3.351-1.284-.234-.783.469-1.425 1.874-2.71a24.12 24.12 0 0 1 7.044-4.48c4.95-2.05 11.822-4.135 27.62-4.135 15.798 0 22.67 2.084 27.621 4.135a24.125 24.125 0 0 1 13.056 13.056c2.051 4.95 4.135 11.822 4.135 27.62 0 15.8-2.084 22.671-4.135 27.621a24.12 24.12 0 0 1-4.481 7.044ZM0 57.465C0 40.329 2.3 31.76 5.099 25.002A36.777 36.777 0 0 1 25.003 5.098C31.76 2.298 40.329 0 57.465 0 74.6 0 83.169 2.299 89.928 5.098a36.779 36.779 0 0 1 19.904 19.904c2.799 6.759 5.097 15.327 5.097 32.463 0 17.136-2.298 25.704-5.097 32.462a36.776 36.776 0 0 1-19.904 19.904c-6.758 2.8-15.327 5.098-32.463 5.098-17.136 0-25.704-2.298-32.462-5.098A36.775 36.775 0 0 1 5.099 89.927C2.299 83.17 0 74.601 0 57.465Z" clip-rule="evenodd"/><path fill="#000" d="M154.547 26.23c2.15-1.577 5.338-3.082 9.566-4.515 4.228-1.433 9.352-2.15 15.371-2.15 4.228 0 8.062.394 11.502 1.182 3.44.717 6.378 1.863 8.814 3.44 2.508 1.505 4.407 3.44 5.697 5.804 1.362 2.365 2.042 5.196 2.042 8.492 0 8.671-4.443 14.583-13.328 17.736 11.465 1.72 17.198 7.596 17.198 17.628 0 3.225-.645 6.27-1.935 9.137-1.29 2.795-3.225 5.231-5.804 7.31-2.58 2.006-5.805 3.618-9.674 4.836-3.798 1.219-8.205 1.828-13.222 1.828-3.439 0-6.664-.287-9.674-.86-2.938-.502-5.625-1.183-8.061-2.043-2.365-.931-4.443-1.934-6.235-3.01-1.72-1.146-3.081-2.292-4.085-3.439V71.053c1.147 1.934 2.616 3.726 4.408 5.374 1.791 1.648 3.869 3.081 6.234 4.3 2.365 1.218 5.016 2.185 7.954 2.902 3.01.645 6.235.967 9.674.967 2.293 0 4.443-.25 6.45-.752 2.006-.502 3.726-1.218 5.159-2.15 1.505-1.003 2.687-2.221 3.547-3.655.86-1.433 1.29-3.117 1.29-5.052 0-3.368-1.325-5.84-3.977-7.416-2.58-1.577-6.808-2.365-12.684-2.365H169.38V52.134h11.287c2.436 0 4.479-.25 6.127-.752 1.648-.573 2.974-1.326 3.977-2.257 1.003-.932 1.72-2.007 2.15-3.225.501-1.218.752-2.544.752-3.977 0-1.72-.358-3.189-1.075-4.407a8.37 8.37 0 0 0-3.009-3.117c-1.29-.789-2.795-1.362-4.515-1.72-1.72-.43-3.583-.681-5.59-.753-2.866-.071-5.589.251-8.169.968a28.996 28.996 0 0 0-6.987 3.01 33.394 33.394 0 0 0-5.697 4.191c-1.648 1.577-3.009 3.19-4.084 4.837V26.23ZM226.822 95.883V20.64h32.677c16.912 0 25.368 6.234 25.368 18.703 0 4.3-.896 7.883-2.688 10.75-1.791 2.865-4.622 5.051-8.491 6.556 4.657.788 8.061 2.651 10.211 5.59 2.15 2.866 3.225 6.771 3.225 11.716 0 3.87-.681 7.202-2.043 9.996-1.361 2.795-3.332 5.088-5.911 6.88-2.509 1.72-5.59 3.01-9.245 3.87-3.583.788-7.667 1.182-12.253 1.182h-30.85Zm31.709-12.362c5.16 0 8.958-.824 11.394-2.472 2.437-1.72 3.655-4.407 3.655-8.062 0-3.654-1.29-6.234-3.87-7.739-2.579-1.505-6.234-2.257-10.964-2.257h-18.488v20.53h18.273Zm-.967-31.064c4.3 0 7.668-.896 10.104-2.687 2.508-1.792 3.762-4.3 3.762-7.525 0-3.01-1.075-5.302-3.224-6.879-2.079-1.577-5.518-2.365-10.319-2.365h-17.629v19.456h17.306ZM319.089 84.059c1.434 0 2.724-.323 3.87-.968 1.147-.644 2.15-1.827 3.01-3.547L293.077 20.64h15.586l24.185 43.64 19.778-43.64h14.081l-27.624 59.55c-1.505 3.296-3.01 6.019-4.515 8.169-1.505 2.078-3.046 3.762-4.622 5.052-1.577 1.218-3.225 2.078-4.945 2.58-1.648.5-3.439.752-5.374.752-1.72 0-3.368-.18-4.945-.538-1.505-.358-2.759-.752-3.762-1.182V81.049c1.003.932 2.222 1.684 3.655 2.257 1.433.502 2.938.753 4.514.753ZM391.311 95.883h-13.436V20.64h13.436v31.602h11.286l24.186-31.602h16.338l-28.7 35.794 33.322 39.449h-17.198l-27.303-32.57h-11.931v32.57ZM240.201 147.819a3.264 3.264 0 1 1-6.529 0 3.265 3.265 0 0 1 6.529 0ZM255.603 136.363h3.811v9.597h4.133l7.21-9.597h4.363l-8.404 10.837 9.919 12.124h-4.821l-8.267-10.103h-4.133v10.103h-3.811v-22.961ZM281.578 138.108c.765-.582 1.806-1.087 3.122-1.516 1.347-.459 2.909-.689 4.685-.689 1.469 0 2.786.138 3.949.414 1.163.275 2.143.734 2.939 1.377.827.643 1.454 1.5 1.883 2.572.428 1.041.643 2.342.643 3.903v15.155h-3.628v-3.903c-.613 1.285-1.607 2.326-2.985 3.122-1.347.766-2.939 1.149-4.776 1.149-2.296 0-4.133-.598-5.511-1.792-1.378-1.194-2.066-2.969-2.066-5.327 0-1.255.214-2.296.642-3.122a5.112 5.112 0 0 1 1.929-2.021c.827-.52 1.837-.873 3.031-1.056 1.194-.215 2.557-.322 4.087-.322h5.465v-1.837c0-.979-.138-1.791-.413-2.434-.276-.642-.658-1.148-1.148-1.515-.49-.398-1.087-.674-1.791-.827a10.184 10.184 0 0 0-2.25-.229c-1.807 0-3.368.398-4.685 1.194a9.52 9.52 0 0 0-3.122 3.123v-5.419Zm6.796 18.047c1.164 0 2.143-.168 2.939-.505.827-.337 1.5-.735 2.021-1.194.52-.49.903-.995 1.148-1.515.276-.521.444-.98.505-1.378v-2.48h-5.327c-2.082 0-3.597.215-4.546.643-.919.429-1.378 1.301-1.378 2.618 0 1.133.383 2.051 1.148 2.755.765.704 1.929 1.056 3.49 1.056ZM319.747 150.874c-.796.429-1.745.75-2.847.965a15.94 15.94 0 0 1-3.123.321c-2.939 0-5.205-.628-6.797-1.883-1.561-1.286-2.342-3.322-2.342-6.108v-7.806h3.812v7.393c0 3.307 1.867 4.96 5.602 4.96 1.011 0 2.006-.092 2.985-.276a14.918 14.918 0 0 0 2.71-.826v-11.251h3.811v22.961h-3.811v-8.45ZM340.498 135.903c3.184 0 5.664.949 7.44 2.848 1.806 1.898 2.709 4.561 2.709 7.99v2.48h-17.588c.184 2.48.918 4.317 2.204 5.511 1.286 1.163 3.062 1.745 5.327 1.745 2.205 0 4.011-.383 5.419-1.148 1.408-.766 2.419-1.699 3.031-2.802v4.455c-.582.704-1.577 1.347-2.985 1.929-1.378.581-3.199.872-5.465.872-3.643 0-6.46-.995-8.45-2.985-1.99-1.99-2.985-5.005-2.985-9.047 0-1.99.291-3.719.873-5.189.582-1.5 1.378-2.74 2.388-3.72a9.79 9.79 0 0 1 3.582-2.204c1.378-.49 2.878-.735 4.5-.735Zm0 3.307c-2.173 0-3.888.566-5.143 1.699s-2.005 2.817-2.25 5.051h13.731v-.045c0-2.205-.597-3.873-1.791-5.006s-2.71-1.699-4.547-1.699ZM373.414 156.982c-.52.704-1.408 1.347-2.663 1.929-1.256.581-2.863.872-4.822.872-3.644 0-6.46-.995-8.45-2.985-1.99-1.99-2.985-5.005-2.985-9.047 0-1.99.291-3.719.872-5.189.582-1.5 1.378-2.74 2.388-3.72a9.806 9.806 0 0 1 3.582-2.204c1.378-.49 2.878-.735 4.501-.735 1.561 0 2.985.23 4.271.689 1.285.429 2.311.934 3.076 1.516v5.419a9.51 9.51 0 0 0-3.122-3.123c-1.256-.796-2.664-1.194-4.225-1.194-2.419 0-4.271.719-5.557 2.158-1.286 1.408-1.929 3.536-1.929 6.383v.138c0 2.97.643 5.144 1.929 6.521 1.317 1.378 3.199 2.067 5.649 2.067 1.928 0 3.505-.383 4.73-1.148 1.255-.766 2.173-1.699 2.755-2.802v4.455ZM384.972 139.761h-7.669v-3.398h19.104v3.398h-7.624v19.563h-3.811v-19.563ZM401.22 136.363h10.241c2.909 0 4.929.459 6.062 1.377 1.163.888 1.745 2.159 1.745 3.812 0 1.469-.352 2.663-1.056 3.582-.674.888-1.638 1.485-2.893 1.791a9.814 9.814 0 0 1 2.02.459c.643.214 1.179.536 1.608.964.459.429.811.98 1.056 1.654.275.673.413 1.515.413 2.525 0 2.297-.735 4.011-2.204 5.144-1.47 1.102-3.781 1.653-6.935 1.653H401.22v-22.961Zm10.011 19.655c1.899 0 3.261-.276 4.088-.827.857-.582 1.285-1.454 1.285-2.618 0-1.377-.413-2.296-1.239-2.755-.827-.49-1.975-.735-3.445-.735h-6.888v6.935h6.199Zm-.551-10.195c1.439 0 2.587-.245 3.445-.735.857-.49 1.285-1.378 1.285-2.664 0-1.132-.367-1.867-1.102-2.204-.734-.367-1.837-.551-3.306-.551l-5.97.046v6.108h5.648ZM424.41 147.751c0-1.99.291-3.719.872-5.189.582-1.5 1.378-2.74 2.389-3.72a9.794 9.794 0 0 1 3.581-2.204c1.378-.49 2.878-.735 4.501-.735 3.613.031 6.414 1.041 8.404 3.031 1.99 1.99 2.985 4.991 2.985 9.001 0 1.99-.291 3.735-.873 5.235-.581 1.47-1.377 2.695-2.388 3.674a9.779 9.779 0 0 1-3.582 2.205c-1.377.489-2.878.734-4.5.734-3.643-.03-6.46-1.025-8.45-2.985-1.959-1.99-2.939-5.005-2.939-9.047Zm3.858.138c0 2.97.642 5.144 1.928 6.521 1.286 1.378 3.154 2.067 5.603 2.067 2.418 0 4.271-.704 5.557-2.113 1.285-1.439 1.928-3.582 1.928-6.429v-.138c0-2.939-.658-5.097-1.974-6.475-1.286-1.377-3.138-2.082-5.557-2.112-2.419 0-4.271.719-5.557 2.158-1.286 1.408-1.928 3.536-1.928 6.383v.138ZM184.145 136.114c-.627 0-1.125.149-1.467.473-.344.327-.502.805-.502 1.405s.158 1.079.502 1.405c.342.325.84.473 1.467.473.626 0 1.125-.148 1.467-.473.343-.326.502-.805.502-1.405s-.159-1.078-.502-1.405c-.342-.324-.841-.473-1.467-.473ZM185.721 142.76h-3.183v16.564h3.183V142.76ZM154.117 136.21h3.453v9.662h13.116v-9.662h3.453v23.024h-3.453v-10.32H157.57v10.32h-3.453V136.21ZM193.525 136.21h14.719v3.042h-11.265v7.689h10.69v3.042h-10.69v9.251h-3.454V136.21ZM215.383 136.587c.342-.324.841-.473 1.467-.473.626 0 1.125.149 1.467.473.343.327.502.805.502 1.405s-.159 1.079-.502 1.405c-.342.325-.841.473-1.467.473-.626 0-1.125-.148-1.467-.473-.344-.326-.502-.805-.502-1.405s.158-1.078.502-1.405ZM215.244 142.76h3.182v16.564h-3.182V142.76Z"/><path fill="#000" fill-rule="evenodd" d="M184.145 136.272c-.604 0-1.057.144-1.358.43-.302.287-.453.717-.453 1.29 0 .574.151 1.004.453 1.29.301.287.754.43 1.358.43.604 0 1.056-.143 1.358-.43.301-.286.452-.716.452-1.29 0-.573-.151-1.003-.452-1.29-.302-.286-.754-.43-1.358-.43Zm-1.576.201c.382-.363.927-.517 1.576-.517.648 0 1.193.154 1.576.517.385.366.551.893.551 1.519 0 .627-.166 1.154-.551 1.52-.383.363-.928.517-1.576.517-.649 0-1.194-.154-1.576-.517-.386-.366-.551-.893-.551-1.52 0-.626.165-1.153.551-1.519Zm32.705 0c.382-.363.927-.517 1.576-.517s1.194.154 1.576.517c.385.366.551.893.551 1.519 0 .627-.166 1.154-.551 1.52-.382.363-.927.517-1.576.517s-1.194-.154-1.576-.517c-.386-.366-.551-.893-.551-1.52 0-.626.165-1.153.551-1.519Zm1.576-.201c-.604 0-1.057.144-1.358.43-.302.287-.453.717-.453 1.29 0 .574.151 1.004.453 1.29.301.287.754.43 1.358.43.604 0 1.056-.143 1.358-.43.302-.286.452-.716.452-1.29 0-.573-.15-1.003-.452-1.29-.302-.286-.754-.43-1.358-.43Zm-62.892-.22h3.771v9.661h12.799v-9.661h3.77v23.34h-3.77v-10.32h-12.799v10.32h-3.771v-23.34Zm.317.316v22.708h3.137v-10.32h13.432v10.32h3.137v-22.708h-3.137v9.662h-13.432v-9.662h-3.137Zm39.092-.316h15.036v3.358h-11.266v7.372h10.69v3.359h-10.69v9.251h-3.77v-23.34Zm.317.316v22.708h3.137v-9.251h10.689v-2.726h-10.689v-8.005h11.265v-2.726h-14.402Zm-11.304 6.233h3.499v16.881h-3.499v-16.881Zm.317.317v16.248h2.866v-16.248h-2.866Zm32.388-.317h3.499v16.881h-3.499v-16.881Zm.317.317v16.248h2.866v-16.248h-2.866Z" clip-rule="evenodd"/><path fill="#000" d="M154.827 25.717c2.15-1.59 5.338-3.106 9.566-4.55 4.228-1.445 9.351-2.167 15.37-2.167 4.227 0 8.061.397 11.5 1.192 3.44.722 6.378 1.877 8.814 3.466 2.508 1.517 4.407 3.467 5.696 5.85 1.362 2.384 2.042 5.236 2.042 8.559 0 8.739-4.442 14.697-13.327 17.875 11.464 1.733 17.197 7.655 17.197 17.766 0 3.25-.645 6.32-1.935 9.209-1.29 2.816-3.224 5.272-5.804 7.366-2.579 2.023-5.804 3.648-9.673 4.875-3.798 1.228-8.205 1.842-13.22 1.842-3.44 0-6.664-.289-9.674-.867-2.938-.505-5.625-1.191-8.061-2.058-2.364-.939-4.442-1.95-6.234-3.033-1.719-1.156-3.081-2.311-4.084-3.467V70.892c1.146 1.95 2.615 3.755 4.407 5.416 1.791 1.661 3.869 3.106 6.234 4.334 2.364 1.227 5.015 2.202 7.953 2.925 3.01.65 6.234.975 9.674.975 2.293 0 4.442-.253 6.448-.759 2.007-.505 3.726-1.227 5.16-2.166 1.504-1.011 2.687-2.24 3.546-3.684.86-1.444 1.29-3.141 1.29-5.091 0-3.395-1.325-5.886-3.977-7.475-2.579-1.59-6.807-2.384-12.682-2.384H169.66V51.825h11.285c2.436 0 4.479-.253 6.127-.758 1.648-.578 2.973-1.336 3.976-2.275 1.004-.94 1.72-2.023 2.15-3.25.502-1.228.752-2.564.752-4.009 0-1.733-.358-3.214-1.074-4.441a8.407 8.407 0 0 0-3.01-3.142c-1.29-.794-2.794-1.372-4.514-1.733-1.72-.434-3.583-.686-5.589-.759-2.866-.072-5.589.253-8.169.975a28.875 28.875 0 0 0-6.986 3.034 33.405 33.405 0 0 0-5.697 4.225c-1.648 1.589-3.009 3.214-4.084 4.875v-18.85ZM227.097 95.917V20.083h32.674c16.91 0 25.365 6.284 25.365 18.85 0 4.334-.895 7.945-2.687 10.834-1.791 2.889-4.621 5.091-8.491 6.608 4.658.794 8.062 2.672 10.211 5.633 2.15 2.89 3.225 6.825 3.225 11.809 0 3.9-.681 7.258-2.043 10.075-1.361 2.816-3.331 5.127-5.911 6.933-2.508 1.733-5.589 3.033-9.243 3.9-3.583.794-7.667 1.192-12.253 1.192h-30.847Zm31.707-12.459c5.159 0 8.956-.83 11.393-2.491 2.436-1.734 3.654-4.442 3.654-8.125 0-3.684-1.29-6.284-3.869-7.8-2.58-1.517-6.234-2.275-10.963-2.275h-18.487v20.691h18.272Zm-.968-31.308c4.299 0 7.667-.903 10.103-2.708 2.508-1.806 3.762-4.334 3.762-7.584 0-3.033-1.074-5.344-3.224-6.933-2.078-1.589-5.518-2.383-10.318-2.383h-17.627V52.15h17.304ZM319.357 84c1.433 0 2.723-.325 3.869-.975 1.146-.65 2.15-1.842 3.009-3.575l-32.889-59.367h15.585l24.183 43.984 19.777-43.984h14.08L339.348 80.1c-1.505 3.322-3.009 6.067-4.514 8.233-1.505 2.095-3.045 3.792-4.622 5.092-1.576 1.228-3.224 2.094-4.944 2.6-1.648.506-3.439.758-5.374.758-1.72 0-3.368-.18-4.944-.541-1.505-.361-2.759-.759-3.762-1.192V80.967c1.003.939 2.221 1.697 3.654 2.275 1.434.505 2.938.758 4.515.758ZM391.572 95.917h-13.435V20.083h13.435v31.85h11.286l24.183-31.85h16.337l-28.697 36.075L448 95.917h-17.197l-27.3-32.825h-11.931v32.825Z"/></svg>